<svg xmlns="http://www.w3.org/2000/svg" fill="none" viewBox="0 0 208 33" class="my-auto h-auto w-[150px] text-blue-900 lg:w-[180px]"><g fill="currentColor"><path d="M0 15.023c.05-.13.13-.255.145-.388.087-.68.083-1.381.252-2.037.26-1 .612-1.98.966-2.954.495-1.362 1.263-2.576 2.183-3.683.561-.677 1.18-1.31 1.819-1.915 1.154-1.094 2.495-1.935 3.93-2.59.926-.423 1.94-.651 2.915-.968.796-.26 1.612-.363 2.448-.377.67-.012 1.352-.164 2.008-.086.999.118 2.004.167 2.996.429 1.083.287 2.139.623 3.141 1.108 1.232.597 2.419 1.286 3.415 2.24.81.776 1.635 1.553 2.342 2.42.584.716 1.075 1.531 1.482 2.364.485.993.87 2.04 1.232 3.086.197.57.315 1.18.376 1.784.099.973.187 1.954.156 2.928-.032 1.019-.136 2.042-.46 3.026-.203.618-.317 1.271-.557 1.872a22 22 0 0 1-1.109 2.353c-.748 1.37-1.748 2.556-2.886 3.62-.854.799-1.764 1.534-2.807 2.078-.805.42-1.597.892-2.447 1.19-.99.348-2.033.557-3.061.78-1.466.318-2.956.216-4.433.123-.741-.047-1.475-.277-2.202-.463-.617-.159-1.24-.331-1.829-.573-1.37-.562-2.655-1.28-3.828-2.202-1.093-.86-2.09-1.819-2.902-2.936-.63-.868-1.162-1.818-1.661-2.77-.351-.668-.615-1.39-.846-2.11a12 12 0 0 1-.413-1.843c-.112-.725-.158-1.46-.243-2.189-.012-.099-.081-.19-.124-.286v-1.031zm24.357-3.196c-.204-.413-.325-.76-.528-1.05-1.219-1.74-2.787-3.027-4.872-3.624 0-.054-.017-.113.003-.15.41-.787.85-1.545 1.77-1.847.502-.165 1.164.143 1.366.634.114.278.2.59.386.815.205.247.482.502.777.59.473.144.966.032 1.29-.387.356-.463.356-1.032.176-1.54-.339-.964-1.151-1.414-2.093-1.576-.881-.152-1.76.014-2.569.395-1.164.549-2.083 1.393-2.771 2.48-.128.203-.274.297-.526.277-1.075-.089-2.132.076-3.138.412a8.7 8.7 0 0 0-2.907 1.64C9.13 10.25 8.158 11.96 7.806 13.995a8.75 8.75 0 0 0 .493 4.812c.568 1.417 1.389 2.634 2.628 3.548.251.184.359.142.407-.16.077-.48.165-.96.223-1.442a.65.65 0 0 0-.112-.395c-.285-.426-.603-.829-.883-1.258-.649-.994-.842-2.132-.955-3.28-.075-.77.094-1.522.295-2.267a6.4 6.4 0 0 1 1.23-2.43c1.355-1.653 3.1-2.521 5.258-2.533 1.262-.006 2.44.241 3.53.912a7.5 7.5 0 0 1 2.17 2.015c.087.12.218.292.336.298.597.03 1.195.013 1.932.013zm-6.663-1.582c-.558-.073-1.087-.141-1.617-.215-.29-.04-.439.12-.5.369-.237.95-.478 1.9-.686 2.858-.203.94-.369 1.888-.548 2.833q-.354 1.86-.703 3.721c-.176.932-.33 1.868-.524 2.795-.233 1.116-.49 2.226-.748 3.336-.129.55-.615.822-1.12.573-.247-.122-.427-.394-.62-.613-.324-.37-.87-.559-1.27-.422-.531.181-.874.665-.879 1.215-.004.608.58 1.27 1.315 1.397 1.29.223 2.492.008 3.45-1.007.696-.737 1.122-1.622 1.452-2.56.086-.242.198-.329.451-.314.54.031 1.082.072 1.62.039.718-.045 1.457-.065 2.139-.261a8.9 8.9 0 0 0 2.805-1.348c.841-.608 1.527-1.344 2.117-2.18.203-.288.32-.64.512-1.033-.72 0-1.32-.012-1.92.01-.115.005-.245.133-.332.235-.553.648-1.113 1.28-1.847 1.748-.595.38-1.198.694-1.89.865-.775.192-1.546.355-2.347.3-.55-.036-.695-.322-.547-.847.193-.687.323-1.393.467-2.091.093-.454.152-.914.248-1.367.147-.698.325-1.391.468-2.091.148-.725.27-1.456.403-2.186.054-.3.102-.6.163-.898.169-.82.345-1.637.508-2.458.025-.124-.01-.26-.02-.405zM189.505 25.469c.359-.382.756-.676.967-1.068.203-.38.29-.862.297-1.301.037-2.174.102-4.351.014-6.522-.065-1.56-1.348-2.513-3.065-1.983-.79.243-1.312.72-1.615 1.449-.146.352-.276.743-.28 1.117-.024 1.905-.025 3.809.017 5.713.012.534.132 1.094.341 1.582.138.321.497.587.815.78.223.135.252.281.167.431a.52.52 0 0 1-.388.224c-.883-.013-1.764-.072-2.646-.082-.414-.006-.83.08-1.245.087-.129.003-.332-.087-.37-.184-.059-.155-.106-.353.156-.48.734-.359 1.063-.977 1.076-1.793.031-1.937.103-3.874.103-5.81 0-.55-.192-1.099-.293-1.648-.064-.344-.332-.485-.605-.622-.119-.06-.26-.081-.37-.155-.103-.07-.252-.19-.243-.274.015-.146.103-.33.221-.409.363-.238.768-.41 1.128-.65q.76-.507 1.469-1.082c.255-.206.51-.141.705-.002.102.072.091.345.08.521-.033.475-.099.948-.14 1.423-.008.08.05.165.1.312.914-1.57 2.088-2.55 3.959-2.343 1.493.165 2.27 1.126 2.796 2.492.149-.172.305-.304.396-.47.437-.787 1.075-1.402 1.862-1.772a3.34 3.34 0 0 1 2.537-.12c1.27.44 1.962 1.385 2.202 2.678.075.403.13.819.132 1.229.018 2.15 0 4.3.036 6.45.006.408.183.816.292 1.22.144.534.644.677 1.046.932.009.502-.103.547-.585.535-1.2-.028-2.401.006-3.601.003-.16 0-.415-.02-.466-.115-.126-.243-.057-.49.232-.62.641-.284.912-.845.937-1.48.087-2.209.154-4.418.165-6.629a3.03 3.03 0 0 0-.595-1.847c-.644-.865-1.999-.914-2.904-.48-.912.437-1.382 1.202-1.487 2.2-.239 2.283-.025 4.564.054 6.844.006.152.111.298.136.452.074.457.4.695.752.92.125.081.292.175.331.298.118.368-.042.486-.434.476a78 78 0 0 0-3.566-.036c-.544.01-.544.064-.622-.397zM58.697 19.999c-.077.768-.143 1.516-.23 2.264-.07.605-.187 1.207-.245 1.814-.058.64-.282.977-.891 1.176-.907.296-1.81.606-2.727.863-.43.12-.89.163-1.338.185-.699.036-1.4.027-2.1.028-1.032.002-2.022-.24-3.016-.5-1.185-.312-2.27-.841-3.271-1.503a9.4 9.4 0 0 1-2.72-2.75 10.6 10.6 0 0 1-1.236-2.643c-.416-1.35-.456-2.743-.398-4.142a9.3 9.3 0 0 1 1.216-4.255c.82-1.456 1.945-2.597 3.309-3.54a10.9 10.9 0 0 1 3.19-1.511c1.777-.51 3.61-.543 5.431-.325 1.019.123 2.02.415 3.019.675.45.118.878.33 1.297.537.11.054.209.252.21.385.017 1.301.01 2.603.01 3.962-.275.014-.536.03-.803.044-.193-.53-.374-1.038-.566-1.542-.418-1.108-1.232-1.85-2.264-2.361-1.31-.65-2.73-.656-4.122-.494-1.225.143-2.41.544-3.45 1.25-1.311.89-2.284 2.062-2.963 3.508-.425.903-.724 1.85-.805 2.812-.097 1.16-.003 2.344.085 3.511.046.612.207 1.228.407 1.81.192.553.482 1.078.77 1.59.57 1.015 1.397 1.805 2.322 2.486a9.063 9.063 0 0 0 6.298 1.75c1.545-.154 2.758-.913 3.501-2.28.446-.82.74-1.721 1.116-2.579.099-.227.174-.551.56-.296.102.066.258.05.403.074zM67.555 25.35c-.03.51-.13.539-.619.527-1.2-.028-2.401.006-3.602 0-.157 0-.401-.036-.451-.133-.104-.203-.084-.455.188-.573.755-.328.94-.982.997-1.716.31-4.11.132-8.226.159-12.34.007-1.079-.084-2.16-.186-3.235-.059-.622-.339-1.08-1.136-1.215-.086-.014-.224-.12-.221-.175.01-.178.02-.423.134-.515.315-.253.691-.428 1.029-.657.517-.35 1.026-.716 1.532-1.083.217-.157.42-.28.696-.124.296.168.24.408.19.67a3.4 3.4 0 0 0-.062.62q-.021 4.663-.035 9.324c0 .127.025.253.04.396.438-.505.81-1.006 1.254-1.435.821-.796 1.84-1.053 2.969-1.007 1.47.059 2.49.812 3.13 2.06.264.512.387 1.144.404 1.728.056 1.94.025 3.883.05 5.822.008.585.048 1.178.152 1.753.103.572.516.971 1.029 1.198.307.136.198.34.164.506-.015.075-.246.149-.38.15-1.298.01-2.596.012-3.893-.009a.6.6 0 0 1-.418-.246c-.103-.167-.019-.289.194-.407.623-.348.95-.856 1.037-1.629.24-2.12.103-4.242.131-6.361.012-.898-.234-1.738-1.028-2.282-.3-.205-.652-.41-1-.45-1.353-.165-2.542.164-3.34 1.374-.289.44-.485.922-.482 1.464.006 1.978-.04 3.957.033 5.933.043 1.176.286 1.565 1.344 2.066zM147.455 14.806h-2.143c0-.419-.012-.808.012-1.195.004-.068.153-.175.244-.183a56 56 0 0 1 1.863-.157c.207-.014.311-.064.364-.306.177-.803.345-1.616.614-2.392.334-.966.703-1.931 1.171-2.836a7.8 7.8 0 0 1 1.838-2.294 6.3 6.3 0 0 1 1.9-1.16c1.066-.4 3-.532 4.064.612.628.675.713 2.05.099 2.491-.419.3-1.367.371-1.888-.41a9 9 0 0 1-.361-.585c-.35-.625-.991-.843-1.682-.668-1.008.255-1.576.983-2.02 1.82-.312.593-.539 1.236-.748 1.876a40 40 0 0 0-.668 2.373c-.091.352-.142.716-.198 1.077-.05.317.17.336.395.324.662-.035 1.324-.08 1.986-.11.632-.028.834.253.634.865q-.282.86-1.171.86c-.601 0-1.204.01-1.805-.002-.283-.006-.404.077-.434.389-.054.569-.176 1.13-.269 1.697-.073.431-.151.863-.214 1.297-.139.965-.258 1.932-.408 2.894-.14.89-.316 1.774-.468 2.662-.085.503-.131 1.014-.238 1.511-.201.923-.441 1.837-.652 2.756a9.5 9.5 0 0 1-.899 2.366c-.506.942-1.145 1.713-2.251 1.993-.918.233-1.77.202-2.56-.386-.741-.553-.706-1.847.239-2.207.401-.153.956.022 1.412.456.228.218.502.44.794.526.407.12.746-.142.926-.641.147-.409.261-.83.364-1.253.175-.72.332-1.447.494-2.171.02-.096.032-.193.047-.29q.253-1.715.501-3.432.094-.668.177-1.34c.078-.619.14-1.24.233-1.857.146-.964.323-1.924.464-2.887.097-.671.155-1.348.237-2.083zM137.995 23.64c-.301.425-.551.819-.84 1.178-1.023 1.274-2.382 1.757-3.953 1.463-1.209-.227-2.195-.88-2.591-2.124a7 7 0 0 1-.344-1.884c-.053-1.694-.006-3.39-.053-5.084-.018-.675-.156-1.348-.277-2.016-.087-.48-.445-.784-.824-1.055-.119-.086-.243-.164-.361-.242.152-.578.165-.59.766-.591h2.853c0 .143.002.296 0 .45-.054 2.735-.127 5.47-.143 8.203-.003.515.154 1.06.358 1.54.348.825 1.373 1.17 2.247 1.054.633-.082 1.268-.22 1.787-.651.498-.414.895-.895 1.088-1.529.398-1.302.342-2.626.234-3.962-.062-.769-.016-1.547-.062-2.32-.05-.843-.32-1.578-1.136-2.011-.12-.064-.248-.32-.208-.428.054-.146.252-.3.411-.33.285-.056.587-.02.882-.027.638-.01 1.277-.008 1.914-.038.313-.015.437.066.414.407-.079 1.223-.165 2.448-.19 3.674-.029 1.473-.016 2.948.014 4.42.01.486.085.978.21 1.447.096.357.395.58.768.698.171.055.383.179.445.326.104.245-.084.398-.306.54-.7.443-1.371.933-2.07 1.375-.175.11-.429.177-.623.14-.099-.018-.193-.305-.211-.478-.063-.619-.093-1.242-.138-1.864-.006-.078-.033-.155-.059-.285zM160.929 12.626c1.571-.005 2.945.495 4.108 1.525.837.742 1.492 1.625 1.875 2.7.37 1.04.545 2.103.457 3.198-.18 2.23-1.175 4.028-3.004 5.316-.896.633-1.925.992-3.042.955-.728-.023-1.479-.03-2.176-.209-1.205-.31-2.208-1.01-3.03-1.956-.649-.746-1.131-1.6-1.375-2.544a8.1 8.1 0 0 1-.08-3.74c.338-1.599 1.212-2.847 2.414-3.873.649-.553 1.395-.993 2.273-1.124.528-.08 1.055-.166 1.582-.248zm-4.192 6.605c.077.59.167 1.18.229 1.773.097.93.483 1.745 1.026 2.479.62.84 1.462 1.332 2.513 1.496 1.102.172 2.099-.052 2.928-.774.935-.81 1.374-1.911 1.516-3.119.094-.797.131-1.594.044-2.412-.099-.926-.329-1.784-.756-2.598-.391-.742-.942-1.375-1.678-1.754a3.66 3.66 0 0 0-2.9-.237c-1.007.329-1.685.993-2.17 1.896-.545 1.012-.713 2.106-.752 3.248zM108.186 18.17c-1.362 0-2.725.008-4.087-.008-.323-.004-.433.091-.419.416.025.526-.029 1.06.024 1.583.169 1.66 1.008 3.35 2.889 4.007.703.247 1.452.276 2.231.117.966-.198 1.76-.615 2.434-1.302.218-.222.388-.492.609-.71.091-.091.303-.184.381-.14.143.082.326.273.317.408-.014.24-.122.495-.256.705-.432.673-.855 1.351-1.489 1.875-.597.492-1.229.906-1.994 1.034-.621.104-1.26.19-1.885.156-1.597-.084-2.894-.82-3.877-2.059a9 9 0 0 1-1.067-1.743c-.209-.441-.296-.951-.383-1.439a7.8 7.8 0 0 1 .004-2.768c.397-2.15 1.465-3.865 3.392-4.972 1.083-.622 2.279-.709 3.499-.625 1.497.104 2.616.894 3.458 2.05.645.887.84 1.95.769 3.055-.019.29-.15.364-.423.36-1.375-.01-2.75-.004-4.124-.004zm-4.252-1.282c.323.177 5.913.19 6.354-.007-.057-.281-.1-.58-.178-.87-.207-.751-.637-1.336-1.315-1.74-.644-.385-1.352-.428-2.053-.33-.428.059-.886.2-1.237.44-.871.597-1.374 1.465-1.568 2.508zM88.637 24.985c-.11.3-.198.578-.322.84-.04.084-.175.177-.265.174-.995-.022-1.88-.287-2.402-1.226-.161-.288-.266-.608-.403-.929-.337.476-.63.942-.976 1.363-.406.494-.937.795-1.57.972-.667.186-1.292.131-1.945-.022-.856-.2-1.655-1.101-1.85-1.936a3.04 3.04 0 0 1 .052-1.543c.163-.584.529-1.07.992-1.474.697-.608 1.497-1.04 2.35-1.38.627-.251 1.263-.484 1.9-.711.19-.068.397-.1.6-.13.297-.043.353-.215.343-.486-.023-.577.04-1.16-.028-1.73-.104-.841-.435-1.6-1.224-2.03-.623-.34-1.291-.335-1.982-.158-.67.17-1.252.483-1.787.906a.3.3 0 0 1-.243.052c-.293-.084-.535-.799-.357-1.057.447-.646 1.066-1.077 1.77-1.402.788-.36 1.626-.436 2.465-.327 1.481.192 2.454 1.019 2.986 2.432.292.777.348 1.563.354 2.366.009 1.105-.013 2.21.012 3.315.019.809.051 1.621.156 2.421.084.634.475 1.12 1.02 1.467q.18.117.35.232zm-3.496-5.05c-.194.02-.353-.004-.477.052-.87.4-1.765.765-2.59 1.248-.742.435-1.298 1.05-1.24 2.039.034.594.548 1.232 1.202 1.298 1.106.112 1.936-.398 2.58-1.247.778-1.026.455-2.216.523-3.39zM122.569 23.801c-.504.978-1.036 1.824-2.037 2.226-.693.279-1.406.435-2.131.168-.471-.172-.973-.345-1.355-.651-.681-.549-.85-1.346-.805-2.201.067-1.226.787-2.01 1.747-2.641a10.2 10.2 0 0 1 2.814-1.278 19 19 0 0 0 1.474-.491c.1-.038.219-.195.221-.298.013-.663.082-1.341-.027-1.987-.286-1.676-1.44-2.513-3.201-2.07-.665.169-1.222.504-1.776.875-.075.05-.286.02-.342-.049-.398-.477-.467-.703-.049-1.18a4.35 4.35 0 0 1 1.891-1.287 4.5 4.5 0 0 1 2.487-.11c.483.116.917.266 1.315.548.58.412.965.966 1.258 1.615.416.915.392 1.882.419 2.843.046 1.694.047 3.389.105 5.083.023.701.352 1.29.921 1.721.076.058.172.089.249.145.171.123.358.249.146.489a.3.3 0 0 0-.039.062c-.302.759-.306.783-1.117.606-.946-.205-1.661-.704-1.937-1.697-.036-.134-.129-.253-.232-.447zm-.055-3.876c-.206.025-.353.007-.467.06-.883.409-1.797.768-2.626 1.265-.696.417-1.249.998-1.224 1.951.018.674.609 1.387 1.353 1.379.345-.005.699-.08 1.032-.179.687-.203 1.175-.678 1.542-1.272.612-.989.315-2.085.389-3.204zM91.722 14.259c-.137-.417.006-.674.336-.912 1.045-.756 1.779-1.787 2.455-2.866.058-.091.248-.21.288-.182.157.104.468.033.433.387-.068.67-.087 1.343-.155 2.012-.054.532-.03.58.496.573.76-.01 1.522-.023 2.283-.028.364-.002.573.313.454.664-.024.069-.053.137-.068.207q-.105.55-.683.552c-.7 0-1.4.013-2.098-.006-.332-.009-.465.103-.463.44.01 2.42-.01 4.838.03 7.257.008.53.136 1.09.343 1.58.286.678 1.3.934 1.953.57.206-.115.384-.284.594-.392.08-.04.26-.017.312.045.395.468.385.766-.035 1.189-.684.688-1.514 1.061-2.485.945-.997-.12-1.891-.666-2.278-1.769-.246-.7-.35-1.409-.349-2.147q.008-3.17-.003-6.337a5.5 5.5 0 0 0-.063-.728c-.09-.689-.666-.823-1.182-1.023-.043-.016-.089-.025-.117-.034zM175.895 25.323c.04.616.009.582-.571.561a54 54 0 0 0-3.788-.01c-.551.018-.536.125-.633-.512l.588-.384c.576-.373.66-1.011.675-1.577.054-2.185.035-4.372.023-6.558-.001-.3-.084-.609-.185-.892-.121-.336-.407-.519-.749-.626-.435-.137-.59-.34-.448-.616.079-.157.259-.276.415-.376.785-.509 1.597-.976 2.354-1.521.276-.2.46-.117.773-.016l-.173 2.673.083.049c.091-.121.203-.232.27-.364.465-.92 1.07-1.75 1.994-2.21.751-.373 1.612-.427 2.404-.03.389.195.632.56.675 1.018.037.398-.022.815-.425.96-.324.116-.723.119-1.067.057-.398-.072-.762-.317-1.158-.404-.516-.112-.992.097-1.37.43-.595.53-.912 1.218-1.104 2-.281 1.144-.309 2.3-.287 3.46.021 1.066.071 2.133.134 3.197.05.849.638 1.468 1.57 1.69M203.761 10.915c.656-.415 1.299-.773 1.887-1.203.647-.473.89-1.173.701-1.94-.069-.28-.384-.526-.635-.731-.324-.265-.744-.426-1.039-.716-.794-.78-.508-1.856.388-2.251.807-.355 1.584-.056 2.144.628.876 1.07.942 2.302.599 3.596a3.9 3.9 0 0 1-1.412 2.126 4.7 4.7 0 0 1-1.61.84c-.071.02-.143.035-.211.06-.709.272-.616.174-.813-.41zM83.124 4.024c.35.39.705.762 1.035 1.154.884 1.048 1.76 2.103 2.638 3.157.233.279.474.553.678.852.073.105.046.276.065.417-.14-.007-.315.04-.413-.028a397 397 0 0 1-3.779-2.673c-.18-.129-.346-.15-.524-.012-.66.504-1.318 1.01-1.98 1.51-.535.406-1.07.811-1.618 1.199-.083.059-.31.065-.342.013-.062-.096-.087-.293-.028-.376.324-.445.68-.868 1.023-1.298.877-1.104 1.748-2.211 2.632-3.31.164-.203.373-.37.615-.605z"></path></g></svg>
