<svg role="img" aria-label="Logo Linkeo" xmlns="http://www.w3.org/2000/svg" xml:space="preserve" width="105" height="74" style="enable-background:new 0 0 105 74" viewBox="0 0 105 74" class="logo-linkeo" fill="#1665C4"><path d="M93.3 41.9c4.8 2.4 9.3-1.1 10.7-5.6 1.5-4.8-.3-11.2-5.1-13.2-4.1-1.7-8 1.3-9.3 5-.1.2-.1.3-.2.5-1.1 4.5-.8 10.9 3.9 13.3zm.6-12.1c.5-1.8 1.8-2.9 3.7-2.2.8.3 1.2 1.3 1.4 2 .6 1.8.8 3.6.4 5.4-.5 2.1-2.4 3.7-4.4 2.4-.8-.5-1-1.9-1.2-2.8-.4-1.5-.3-3.2.1-4.8zM83.3 41c2.6-1.6.2-5.7-2.4-4.1-2.1 1.3-5.9 1.8-7-1.1-.1-.2-.1-.4-.2-.5 2.9-.3 5.7-.7 8.6-1.2 1.1-.2 1.6-1.3 1.7-2.3.3-2.6-.4-5.3-2.2-7.3-2.8-3.1-8.2-2.2-10.9.4-3.4 3.2-2.8 10.3-.7 14 2.5 4.7 9.3 4.5 13.1 2.1zm-8.4-13.2c2.4-1.6 3.9 0 4.3 2.1-1.9.3-3.9.5-5.8.8.2-1.3.7-2.3 1.5-2.9zM16.6 47.9c-3.4.4-7.1.6-10.6.3 0-7.7-.2-15.5-.3-23.3 0-3-4.8-3.1-4.7 0 .1 8.4.3 16.9.3 25.3 0 1 .7 2.1 1.7 2.3 4.4.8 9.1.6 13.5.1 3.1-.3 3.1-5 .1-4.7z"></path><path d="M12.1 25c.2 5.2.2 10.3.1 15.5 0 3.1 4.7 3 4.7 0 .1-5.2.1-10.3-.1-15.5-.1-3.1-4.8-3.1-4.7 0zM37.1 25c.1 5.6.1 11.1.1 16.7-3.5-5.7-7.2-11.3-9.6-17.4-.9-2.3-4.7-2.2-4.6.6.2 8.6.1 17.2.5 25.7.1 3 4.9 3.1 4.7 0-.2-5.2-.3-10.3-.3-15.5 3.2 5.5 6.8 10.8 9.5 16.6 1.1 2.2 4.3 1 4.4-1.2.2-8.6.2-17.1.1-25.6-.2-3-4.9-3-4.8.1zM58.5 34.6c2.3-2.8 4.5-5.6 6.6-8.6 1.8-2.5-2.3-4.8-4.1-2.4-2.8 3.8-5.8 7.5-8.9 11.2-.1-3.3-.2-6.6-.4-9.9-.1-3-4.8-3.1-4.7 0 .3 8.6.7 17.2.7 25.7 0 3.1 4.7 3.1 4.7 0 0-2.9-.1-5.9-.1-8.8 1-1.1 1.9-2.2 2.9-3.3 2.4 4.4 4.8 8.8 7.1 13.3 1.4 2.7 5.5.3 4.1-2.4-2.6-4.9-5.2-9.9-7.9-14.8zM14.3 17.5c3.1 0 3.1-4.7 0-4.7s-3.1 4.7 0 4.7zM101.6 47c-8.7 1.8-18.8 1.7-27.6.2-3-.5-4.2 4-1.3 4.6 9.6 1.7 20.5 1.8 30.1-.2 3-.6 1.8-5.2-1.2-4.6z"></path></svg>
